<svg xmlns="http://www.w3.org/2000/svg" width="96" height="96" viewBox="0 0 96 96">
<defs>
<linearGradient id="stone" x1="0" y1="0" x2=".8" y2="1"><stop stop-color="#fff0cd"/><stop offset="1" stop-color="#b49d75"/></linearGradient>
<linearGradient id="clay" x1="0" y1="0" x2=".5" y2="1"><stop stop-color="#e99467"/><stop offset="1" stop-color="#a84835"/></linearGradient>
<linearGradient id="gold" x1="0" y1="0" x2=".5" y2="1"><stop stop-color="#f6d68b"/><stop offset="1" stop-color="#ad7837"/></linearGradient>
<linearGradient id="wood" x1="0" y1="0" x2=".5" y2="1"><stop stop-color="#be8550"/><stop offset="1" stop-color="#674230"/></linearGradient>
<linearGradient id="blue" x1="0" y1="0" x2=".65" y2="1"><stop stop-color="#8cd5dd"/><stop offset="1" stop-color="#296c92"/></linearGradient>
<linearGradient id="green" x1="0" y1="0" x2=".7" y2="1"><stop stop-color="#a3c979"/><stop offset="1" stop-color="#47764c"/></linearGradient>
<linearGradient id="metal" x1="0" y1="0" x2=".6" y2="1"><stop stop-color="#d2e0de"/><stop offset="1" stop-color="#657c87"/></linearGradient>
</defs>
<ellipse cx="48" cy="86" rx="36" ry="5" fill="#081723" opacity=".3"/>
<g stroke="#253d43" stroke-width="2.4" stroke-linecap="round" stroke-linejoin="round">
<path d="m12 47 29-9 23 13v31l-29 8-23-13Z" fill="url(#wood)"/>
<path d="m12 47 29-9 23 13-29 10Z" fill="#d3a772"/>
<path d="m35 61 29-10v31l-29 8Z" fill="#855733"/>
<path d="m18 49 23-7 16 9-22 7Zm-1 5 12 7v20l-12-7Zm24 9 17-6v21l-17 5Z" fill="none" stroke="#efd09a" stroke-width="3"/>
<path d="M69 26h12v13c0 9 8 12 8 27 0 12-7 20-15 20s-16-8-16-20c0-14 11-19 11-27Z" fill="url(#clay)"/>
<path d="M71 43c-12-10-20 9-9 13m17-13c13-11 20 8 8 14" fill="none" stroke="#d78655" stroke-width="5"/>
<path d="M67 26h16v7H67Z" fill="#efbb79"/>
<path d="M64 65h21M67 71h16" fill="none" stroke="#f7d4a0" stroke-width="3"/>

</g>
</svg>
